<svg disply='none' xmlns="http://www.w3.org/2000/svg">
	<symbol id="logo" viewBox="0 0 150 50">
		<g>
			<path class="st0" d="M121.5,1.8c-0.1-0.6-0.6-1-1.1-1h-13.2c-0.5,0-0.9,0.3-1.1,0.8l-9.6,29.7L86.3,1.6c-0.2-0.5-0.6-0.8-1.1-0.8
				H72c-0.6,0-1,0.4-1.1,1l-8.2,47.7c-0.1,0.3,0,0.7,0.3,0.9c0.2,0.3,0.5,0.4,0.9,0.4h11.5c0.6,0,1.1-0.4,1.1-1l4.3-29.1L91,50.1
				c0.2,0.5,0.6,0.8,1.1,0.8h8.1c0.5,0,0.9-0.3,1.1-0.8l10.3-29.6l4.3,29.4c0.1,0.6,0.6,1,1.1,1h11.5c0.3,0,0.7-0.2,0.9-0.4
				c0.2-0.3,0.3-0.6,0.3-0.9L121.5,1.8z"/>
			<path class="st0" d="M66.8,1.3c-0.2-0.3-0.5-0.4-0.9-0.4H54.4c-0.6,0-1.1,0.4-1.1,1L49,31.2L38.7,1.6c-0.2-0.5-0.6-0.8-1.1-0.8
				h-8.1c-0.5,0-0.9,0.3-1.1,0.8L18.1,30.9L13.8,1.8c-0.1-0.6-0.6-1-1.1-1H1.2C0.8,0.8,0.5,1,0.3,1.3C0.1,1.5,0,1.9,0,2.2l8.2,47.7
				c0.1,0.6,0.6,1,1.1,1h13.2c0.5,0,0.9-0.3,1.1-0.8l10.2-29.7L43.4,50c0.2,0.5,0.6,0.8,1.1,0.8h13.2c0.6,0,1-0.4,1.1-1L67,2.2
				C67.1,1.9,67,1.5,66.8,1.3"/>
		</g>
	</symbol>
</svg>